<mxfile host="app.diagrams.net" modified="2022-10-18T07:20:55.769Z" agent="5.0 (Windows NT 6.1; Win64; x64) AppleWebKit/537.36 (KHTML, like Gecko) Chrome/106.0.0.0 Safari/537.36" etag="JzEHw9p_g08F22jdMPe0" version="20.4.1" type="github">
  <diagram id="Lec9oAFG67YDy-X9fQWe" name="第 1 页">
    <mxGraphModel dx="1108" dy="450" grid="1" gridSize="10" guides="1" tooltips="1" connect="1" arrows="1" fold="1" page="1" pageScale="1" pageWidth="827" pageHeight="1169" math="0" shadow="0">
      <root>
        <mxCell id="0" />
        <mxCell id="1" parent="0" />
        <mxCell id="KUPW0LQg7xvWzgEW6YCn-16" value="手机端" style="shape=umlLifeline;perimeter=lifelinePerimeter;whiteSpace=wrap;html=1;container=1;collapsible=0;recursiveResize=0;outlineConnect=0;" vertex="1" parent="1">
          <mxGeometry x="120" y="40" width="100" height="1150" as="geometry" />
        </mxCell>
        <mxCell id="KUPW0LQg7xvWzgEW6YCn-26" value="" style="html=1;points=[];perimeter=orthogonalPerimeter;" vertex="1" parent="KUPW0LQg7xvWzgEW6YCn-16">
          <mxGeometry x="45" y="90" width="10" height="220" as="geometry" />
        </mxCell>
        <mxCell id="KUPW0LQg7xvWzgEW6YCn-18" value="server端" style="shape=umlLifeline;perimeter=lifelinePerimeter;whiteSpace=wrap;html=1;container=1;collapsible=0;recursiveResize=0;outlineConnect=0;" vertex="1" parent="1">
          <mxGeometry x="280" y="40" width="106" height="1350" as="geometry" />
        </mxCell>
        <mxCell id="KUPW0LQg7xvWzgEW6YCn-22" value="" style="html=1;points=[];perimeter=orthogonalPerimeter;" vertex="1" parent="KUPW0LQg7xvWzgEW6YCn-18">
          <mxGeometry x="48" y="100" width="10" height="210" as="geometry" />
        </mxCell>
        <mxCell id="KUPW0LQg7xvWzgEW6YCn-32" value="" style="html=1;points=[];perimeter=orthogonalPerimeter;" vertex="1" parent="KUPW0LQg7xvWzgEW6YCn-18">
          <mxGeometry x="53" y="276" width="10" height="40" as="geometry" />
        </mxCell>
        <mxCell id="KUPW0LQg7xvWzgEW6YCn-33" value="生成用户活动合成记录表" style="edgeStyle=orthogonalEdgeStyle;html=1;align=left;spacingLeft=2;endArrow=block;rounded=0;entryX=1;entryY=0;" edge="1" target="KUPW0LQg7xvWzgEW6YCn-32" parent="KUPW0LQg7xvWzgEW6YCn-18">
          <mxGeometry relative="1" as="geometry">
            <mxPoint x="58" y="255" as="sourcePoint" />
            <Array as="points">
              <mxPoint x="88" y="255" />
            </Array>
          </mxGeometry>
        </mxCell>
        <mxCell id="KUPW0LQg7xvWzgEW6YCn-38" value="" style="html=1;points=[];perimeter=orthogonalPerimeter;" vertex="1" parent="KUPW0LQg7xvWzgEW6YCn-18">
          <mxGeometry x="53" y="130" width="10" height="40" as="geometry" />
        </mxCell>
        <mxCell id="KUPW0LQg7xvWzgEW6YCn-39" value="查询活动模板配置&lt;br&gt;组装活8个活照片合成请求" style="edgeStyle=orthogonalEdgeStyle;html=1;align=left;spacingLeft=2;endArrow=block;rounded=0;entryX=1;entryY=0;" edge="1" target="KUPW0LQg7xvWzgEW6YCn-38" parent="KUPW0LQg7xvWzgEW6YCn-18">
          <mxGeometry relative="1" as="geometry">
            <mxPoint x="58" y="110" as="sourcePoint" />
            <Array as="points">
              <mxPoint x="88" y="110" />
            </Array>
          </mxGeometry>
        </mxCell>
        <mxCell id="KUPW0LQg7xvWzgEW6YCn-19" value="aniamte" style="shape=umlLifeline;perimeter=lifelinePerimeter;whiteSpace=wrap;html=1;container=1;collapsible=0;recursiveResize=0;outlineConnect=0;" vertex="1" parent="1">
          <mxGeometry x="470" y="40" width="100" height="1470" as="geometry" />
        </mxCell>
        <mxCell id="KUPW0LQg7xvWzgEW6YCn-29" value="" style="html=1;points=[];perimeter=orthogonalPerimeter;" vertex="1" parent="KUPW0LQg7xvWzgEW6YCn-19">
          <mxGeometry x="45" y="170" width="10" height="500" as="geometry" />
        </mxCell>
        <mxCell id="KUPW0LQg7xvWzgEW6YCn-34" value="" style="html=1;points=[];perimeter=orthogonalPerimeter;" vertex="1" parent="KUPW0LQg7xvWzgEW6YCn-19">
          <mxGeometry x="51" y="230" width="10" height="40" as="geometry" />
        </mxCell>
        <mxCell id="KUPW0LQg7xvWzgEW6YCn-35" value="查询模板信息&lt;br&gt;生成初始合成记录" style="edgeStyle=orthogonalEdgeStyle;html=1;align=left;spacingLeft=2;endArrow=block;rounded=0;entryX=1;entryY=0;" edge="1" target="KUPW0LQg7xvWzgEW6YCn-34" parent="KUPW0LQg7xvWzgEW6YCn-19">
          <mxGeometry relative="1" as="geometry">
            <mxPoint x="56" y="210" as="sourcePoint" />
            <Array as="points">
              <mxPoint x="86" y="210" />
            </Array>
          </mxGeometry>
        </mxCell>
        <mxCell id="KUPW0LQg7xvWzgEW6YCn-54" value="" style="html=1;points=[];perimeter=orthogonalPerimeter;" vertex="1" parent="KUPW0LQg7xvWzgEW6YCn-19">
          <mxGeometry x="45" y="730" width="10" height="70" as="geometry" />
        </mxCell>
        <mxCell id="KUPW0LQg7xvWzgEW6YCn-20" value="AI" style="shape=umlLifeline;perimeter=lifelinePerimeter;whiteSpace=wrap;html=1;container=1;collapsible=0;recursiveResize=0;outlineConnect=0;" vertex="1" parent="1">
          <mxGeometry x="690" y="40" width="100" height="1620" as="geometry" />
        </mxCell>
        <mxCell id="KUPW0LQg7xvWzgEW6YCn-45" value="" style="html=1;points=[];perimeter=orthogonalPerimeter;" vertex="1" parent="KUPW0LQg7xvWzgEW6YCn-20">
          <mxGeometry x="45" y="310" width="10" height="80" as="geometry" />
        </mxCell>
        <mxCell id="KUPW0LQg7xvWzgEW6YCn-48" value="" style="html=1;points=[];perimeter=orthogonalPerimeter;" vertex="1" parent="KUPW0LQg7xvWzgEW6YCn-20">
          <mxGeometry x="45" y="460" width="10" height="80" as="geometry" />
        </mxCell>
        <mxCell id="KUPW0LQg7xvWzgEW6YCn-51" value="" style="html=1;points=[];perimeter=orthogonalPerimeter;" vertex="1" parent="KUPW0LQg7xvWzgEW6YCn-20">
          <mxGeometry x="45" y="600" width="10" height="50" as="geometry" />
        </mxCell>
        <mxCell id="KUPW0LQg7xvWzgEW6YCn-58" value="" style="html=1;points=[];perimeter=orthogonalPerimeter;" vertex="1" parent="KUPW0LQg7xvWzgEW6YCn-20">
          <mxGeometry x="45" y="710" width="10" height="110" as="geometry" />
        </mxCell>
        <mxCell id="KUPW0LQg7xvWzgEW6YCn-23" value="用户上传两张照片&lt;br&gt;和活动id" style="html=1;verticalAlign=bottom;endArrow=block;entryX=0;entryY=0;rounded=0;" edge="1" target="KUPW0LQg7xvWzgEW6YCn-22" parent="1" source="KUPW0LQg7xvWzgEW6YCn-26">
          <mxGeometry relative="1" as="geometry">
            <mxPoint x="200" y="140" as="sourcePoint" />
          </mxGeometry>
        </mxCell>
        <mxCell id="KUPW0LQg7xvWzgEW6YCn-24" value="返回用户活动合成id" style="html=1;verticalAlign=bottom;endArrow=open;dashed=1;endSize=8;exitX=0;exitY=0.95;rounded=0;" edge="1" source="KUPW0LQg7xvWzgEW6YCn-22" parent="1" target="KUPW0LQg7xvWzgEW6YCn-26">
          <mxGeometry relative="1" as="geometry">
            <mxPoint x="200" y="216" as="targetPoint" />
          </mxGeometry>
        </mxCell>
        <mxCell id="KUPW0LQg7xvWzgEW6YCn-30" value="通过mq异步发送合成请求" style="html=1;verticalAlign=bottom;endArrow=block;entryX=0;entryY=0;rounded=0;" edge="1" parent="1">
          <mxGeometry relative="1" as="geometry">
            <mxPoint x="338" y="223.00000000000068" as="sourcePoint" />
            <mxPoint x="515" y="223.00000000000068" as="targetPoint" />
          </mxGeometry>
        </mxCell>
        <mxCell id="KUPW0LQg7xvWzgEW6YCn-46" value="请求全图风格化" style="html=1;verticalAlign=bottom;endArrow=block;entryX=0;entryY=0;rounded=0;" edge="1" target="KUPW0LQg7xvWzgEW6YCn-45" parent="1" source="KUPW0LQg7xvWzgEW6YCn-29">
          <mxGeometry relative="1" as="geometry">
            <mxPoint x="665" y="350" as="sourcePoint" />
          </mxGeometry>
        </mxCell>
        <mxCell id="KUPW0LQg7xvWzgEW6YCn-47" value="返回全图风格化图片" style="html=1;verticalAlign=bottom;endArrow=open;dashed=1;endSize=8;exitX=0;exitY=0.95;rounded=0;" edge="1" source="KUPW0LQg7xvWzgEW6YCn-45" parent="1" target="KUPW0LQg7xvWzgEW6YCn-29">
          <mxGeometry relative="1" as="geometry">
            <mxPoint x="665" y="426" as="targetPoint" />
          </mxGeometry>
        </mxCell>
        <mxCell id="KUPW0LQg7xvWzgEW6YCn-49" value="请求纯色背景图片抠像&lt;br&gt;活动中增加waterMark=1参数" style="html=1;verticalAlign=bottom;endArrow=block;entryX=0;entryY=0;rounded=0;" edge="1" target="KUPW0LQg7xvWzgEW6YCn-48" parent="1" source="KUPW0LQg7xvWzgEW6YCn-29">
          <mxGeometry relative="1" as="geometry">
            <mxPoint x="665" y="500" as="sourcePoint" />
          </mxGeometry>
        </mxCell>
        <mxCell id="KUPW0LQg7xvWzgEW6YCn-50" value="返回纯色背景图片抠像图片" style="html=1;verticalAlign=bottom;endArrow=open;dashed=1;endSize=8;exitX=0;exitY=0.95;rounded=0;" edge="1" source="KUPW0LQg7xvWzgEW6YCn-48" parent="1" target="KUPW0LQg7xvWzgEW6YCn-29">
          <mxGeometry relative="1" as="geometry">
            <mxPoint x="665" y="576" as="targetPoint" />
          </mxGeometry>
        </mxCell>
        <mxCell id="KUPW0LQg7xvWzgEW6YCn-52" value="发起活照片+抠像请求" style="html=1;verticalAlign=bottom;endArrow=block;entryX=0;entryY=0;rounded=0;" edge="1" target="KUPW0LQg7xvWzgEW6YCn-51" parent="1" source="KUPW0LQg7xvWzgEW6YCn-29">
          <mxGeometry relative="1" as="geometry">
            <mxPoint x="665" y="640" as="sourcePoint" />
          </mxGeometry>
        </mxCell>
        <mxCell id="KUPW0LQg7xvWzgEW6YCn-55" value="合成成功回调，返回png图片压缩包" style="html=1;verticalAlign=bottom;endArrow=block;entryX=1;entryY=0;rounded=0;" edge="1" target="KUPW0LQg7xvWzgEW6YCn-54" parent="1" source="KUPW0LQg7xvWzgEW6YCn-58">
          <mxGeometry relative="1" as="geometry">
            <mxPoint x="585" y="780" as="sourcePoint" />
          </mxGeometry>
        </mxCell>
      </root>
    </mxGraphModel>
  </diagram>
</mxfile>
